<svg width="77" height="71" viewBox="0 0 77 71" fill="none" xmlns="http://www.w3.org/2000/svg">
<g clip-path="url(#clip0_66_5769)">
<path d="M38.5 0C30.8854 0 23.4419 2.08204 17.1106 5.98283C10.7793 9.88362 5.84463 15.428 2.93066 21.9147C0.0166815 28.4015 -0.745747 35.5394 0.739784 42.4257C2.22531 49.312 5.89208 55.6375 11.2764 60.6023C16.6607 65.5671 23.5208 68.9481 30.989 70.3179C38.4573 71.6876 46.1984 70.9846 53.2333 68.2977C60.2683 65.6108 66.2812 61.0607 70.5116 55.2227C74.742 49.3848 77 42.5212 77 35.5C77 26.0848 72.9438 17.0552 65.7236 10.3977C58.5035 3.74017 48.7109 0 38.5 0ZM36.96 50.2917L19.25 37.8371L25.1213 30.8258L35.7409 38.4583L50.2104 23.43L57.3971 29.3467L36.96 50.2917Z" fill="#346EFB"/>
</g>
<defs>
<clipPath id="clip0_66_5769">
<rect width="77" height="71" fill="white"/>
</clipPath>
</defs>
</svg>
