<svg width="36" height="36" viewBox="0 0 36 36" fill="none" xmlns="http://www.w3.org/2000/svg">
<circle cx="18" cy="18" r="18" fill="url(#paint0_radial_80_8233)"/>
<path d="M10.667 14.333H25.3337" stroke="#959595" stroke-width="1.5" stroke-linecap="round" stroke-linejoin="round"/>
<path d="M21.667 9.75V11.5833" stroke="#959595" stroke-width="1.5" stroke-linecap="round" stroke-linejoin="round"/>
<path d="M14.333 9.75V11.5833" stroke="#959595" stroke-width="1.5" stroke-linecap="round" stroke-linejoin="round"/>
<path d="M9.75 12.5003C9.75 11.4878 10.5708 10.667 11.5833 10.667H24.4167C25.4292 10.667 26.25 11.4878 26.25 12.5003V24.417C26.25 25.4295 25.4292 26.2503 24.4167 26.2503H11.5833C10.5708 26.2503 9.75 25.4295 9.75 24.417V12.5003Z" stroke="#959595" stroke-width="1.5" stroke-linecap="round" stroke-linejoin="round"/>
<path d="M21.667 22.125H21.669V22.127H21.667V22.125Z" stroke="#959595" stroke-width="2" stroke-linecap="round" stroke-linejoin="round"/>
<path d="M18 22.125H18.002V22.127H18V22.125Z" stroke="#959595" stroke-width="2" stroke-linecap="round" stroke-linejoin="round"/>
<path d="M14.333 22.125H14.335V22.127H14.333V22.125Z" stroke="#959595" stroke-width="2" stroke-linecap="round" stroke-linejoin="round"/>
<path d="M21.667 18.458H21.669V18.46H21.667V18.458Z" stroke="#959595" stroke-width="2" stroke-linecap="round" stroke-linejoin="round"/>
<path d="M18 18.458H18.002V18.46H18V18.458Z" stroke="#959595" stroke-width="2" stroke-linecap="round" stroke-linejoin="round"/>
<path d="M14.333 18.458H14.335V18.46H14.333V18.458Z" stroke="#959595" stroke-width="2" stroke-linecap="round" stroke-linejoin="round"/>
<defs>
<radialGradient id="paint0_radial_80_8233" cx="0" cy="0" r="1" gradientUnits="userSpaceOnUse" gradientTransform="translate(18.0564 19.9083) rotate(-45.4851) scale(22.1329 20.3429)">
<stop stop-color="#FDFDFD"/>
<stop offset="1" stop-color="#E4E7EE"/>
</radialGradient>
</defs>
</svg>
