<svg width="36" height="36" viewBox="0 0 36 36" fill="none" xmlns="http://www.w3.org/2000/svg">
<circle cx="18" cy="18" r="18" fill="url(#paint0_radial_80_7850)"/>
<path d="M15.25 22.583H24.4167" stroke="#959595" stroke-width="1.5" stroke-linecap="round" stroke-linejoin="round"/>
<path d="M15.25 18H24.4167" stroke="#959595" stroke-width="1.5" stroke-linecap="round" stroke-linejoin="round"/>
<path d="M15.25 13.417H24.4167" stroke="#959595" stroke-width="1.5" stroke-linecap="round" stroke-linejoin="round"/>
<path d="M10.6665 12.9583L11.5832 13.875L12.9582 12.5" stroke="#959595" stroke-linecap="round"/>
<path d="M12.6832 18.0913C12.6832 18.6482 12.2317 19.0997 11.6748 19.0997C11.118 19.0997 10.6665 18.6482 10.6665 18.0913C10.6665 17.5345 11.118 17.083 11.6748 17.083C12.2317 17.083 12.6832 17.5345 12.6832 18.0913ZM11.3203 18.0913C11.3203 18.2871 11.479 18.4459 11.6748 18.4459C11.8706 18.4459 12.0294 18.2871 12.0294 18.0913C12.0294 17.8955 11.8706 17.7368 11.6748 17.7368C11.479 17.7368 11.3203 17.8955 11.3203 18.0913Z" fill="#959595"/>
<path d="M12.6832 22.6753C12.6832 23.2322 12.2317 23.6837 11.6748 23.6837C11.118 23.6837 10.6665 23.2322 10.6665 22.6753C10.6665 22.1184 11.118 21.667 11.6748 21.667C12.2317 21.667 12.6832 22.1184 12.6832 22.6753ZM11.3203 22.6753C11.3203 22.8711 11.479 23.0299 11.6748 23.0299C11.8706 23.0299 12.0294 22.8711 12.0294 22.6753C12.0294 22.4795 11.8706 22.3208 11.6748 22.3208C11.479 22.3208 11.3203 22.4795 11.3203 22.6753Z" fill="#959595"/>
<defs>
<radialGradient id="paint0_radial_80_7850" cx="0" cy="0" r="1" gradientUnits="userSpaceOnUse" gradientTransform="translate(18.0564 19.9083) rotate(-45.4851) scale(22.1329 20.3429)">
<stop stop-color="#FDFDFD"/>
<stop offset="1" stop-color="#E4E7EE"/>
</radialGradient>
</defs>
</svg>
