<svg width="28" height="28" viewBox="0 0 28 28" fill="none" xmlns="http://www.w3.org/2000/svg">
<path d="M14 0.000165939C6.28054 0.000165939 0 6.28071 0 14.0002C0 21.5326 5.98441 27.6784 13.4457 27.9717C13.552 27.9793 13.6555 28.0002 13.7627 28.0002C13.7921 28.0002 13.8197 27.9935 13.8491 27.9926C13.9003 27.9926 13.9487 28.0002 14 28.0002C21.7195 28.0002 28 21.7196 28 14.0002C28 6.28071 21.7195 0.000165939 14 0.000165939ZM26.0419 12.8137H21.318C21.2145 10.9059 20.9022 9.12722 20.4258 7.54403C21.429 7.00491 22.2026 6.34051 22.6866 5.59257C24.5375 7.50512 25.7685 10.0194 26.0419 12.8137ZM14.7119 2.55908C16.0179 3.03935 17.1863 4.47827 18.0367 6.50945C17.0847 6.80939 15.9619 7.0182 14.7119 7.08939V2.55908ZM17.7748 2.50973C19.0343 2.9245 20.197 3.5443 21.2373 4.3245C21.0247 4.82756 20.5207 5.32681 19.7765 5.76152C19.2251 4.46688 18.5483 3.36776 17.7748 2.50973ZM12.8136 2.55908V7.08939C11.5578 7.0182 10.4359 6.80939 9.48773 6.5104C10.3391 4.47922 11.5075 3.03935 12.8136 2.55908ZM7.74983 5.75867C7.13288 5.39705 6.67729 4.99366 6.41912 4.58173C7.34644 3.83379 8.38671 3.22349 9.50956 2.77264C8.83471 3.58606 8.24434 4.59976 7.74983 5.75867ZM12.8136 8.99149V12.8137H8.11525C8.21302 11.1916 8.47688 9.66349 8.86698 8.29766C10.0373 8.67447 11.3737 8.91745 12.8136 8.99149ZM12.8136 14.712V19.4853C11.3832 19.5603 10.0458 19.8061 8.86888 20.1858C8.4019 18.5542 8.11905 16.6882 8.07919 14.712H12.8136ZM12.8136 21.3874V25.9158C11.5104 25.4375 10.3448 24.0033 9.49437 21.9797C10.4483 21.675 11.5692 21.4615 12.8136 21.3874ZM8.98373 24.9999C8.15132 24.6183 7.37207 24.1457 6.65356 23.5942C6.92027 23.2924 7.29139 23 7.75553 22.7295C8.11525 23.5714 8.52529 24.3345 8.98373 24.9999ZM14.7119 25.9158V21.3874C15.9609 21.4605 17.0819 21.6722 18.0339 21.974C17.1825 24.0004 16.016 25.4365 14.7119 25.9158ZM19.7727 22.7229C20.3517 23.0608 20.7817 23.4357 21.0475 23.8182C20.2132 24.419 19.301 24.9135 18.3272 25.2884C18.872 24.5547 19.358 23.6939 19.7727 22.7229ZM14.7119 19.4844V14.712H19.4453C19.4054 16.6863 19.1235 18.5504 18.6575 20.1801C17.4843 19.8023 16.146 19.5594 14.7119 19.4844ZM14.7119 12.8137V8.99149C16.1536 8.9165 17.4862 8.66593 18.6556 8.28627C19.0476 9.65495 19.3124 11.1878 19.4102 12.8137H14.7119ZM5.0362 5.8982C5.52217 6.52939 6.22739 7.08749 7.09681 7.55352C6.62224 9.13386 6.31092 10.9107 6.20746 12.8137H1.9581C2.21722 10.1637 3.34292 7.76993 5.0362 5.8982ZM1.93437 14.712H6.18183C6.22264 16.9748 6.54441 19.0848 7.09776 20.9261C6.34319 21.3286 5.71485 21.8013 5.24312 22.3299C3.33058 20.3196 2.10712 17.6573 1.93437 14.712ZM22.5035 22.5976C22.0156 21.956 21.3094 21.3874 20.4296 20.9176C20.982 19.0791 21.3028 16.971 21.3436 14.712H26.0656C25.8853 17.7873 24.5641 20.5598 22.5035 22.5976Z" fill="#346EFB"/>
</svg>
