<svg width="38" height="36" viewBox="0 0 38 36" fill="none" xmlns="http://www.w3.org/2000/svg">
<g clip-path="url(#clip0_66_5800)">
<path d="M0.182781 17.7381C0.081993 8.17106 8.23266 0.299915 18.3506 0.193323C28.4685 0.086731 36.7832 7.78442 36.884 17.3514C36.9848 26.9184 28.8341 34.7896 18.7162 34.8962C8.59826 35.0028 0.283569 27.3051 0.182781 17.7381ZM33.8267 17.3836C33.7427 9.40943 26.8144 2.99525 18.381 3.0841C9.94764 3.17294 3.15601 9.73166 3.24002 17.7059C3.32403 25.6801 10.2523 32.0942 18.6857 32.0054C27.1191 31.9165 33.9107 25.3578 33.8267 17.3836Z" fill="#3688FF"/>
<path d="M11.767 14.9601C11.7631 14.5907 11.9098 14.2197 12.2043 13.9319C12.7969 13.3597 13.7646 13.3495 14.3655 13.9092L18.6803 17.9038L22.91 13.8225C23.5026 13.2503 24.4703 13.2401 25.0712 13.7998C25.6757 14.3594 25.6854 15.2744 25.0928 15.8433L19.795 20.9594C19.2024 21.5316 18.2347 21.5418 17.6338 20.9821L12.2258 15.9789C11.9254 15.7007 11.7709 15.3295 11.767 14.9601Z" fill="#5F6379"/>
</g>
<defs>
<clipPath id="clip0_66_5800">
<rect width="34.7048" height="36.7032" fill="white" transform="translate(36.7012) rotate(89.3964)"/>
</clipPath>
</defs>
</svg>
