<svg width="218" height="74" viewBox="0 0 218 74" fill="none" xmlns="http://www.w3.org/2000/svg">
<path d="M82.3707 44V28.6H84.7247L91.4567 39.842H90.2247L96.8467 28.6H99.2007L99.2227 44H96.5167L96.4947 32.846H97.0667L91.4347 42.24H90.1587L84.4387 32.846H85.0987V44H82.3707ZM106.729 35.002H114.385V37.356H106.729V35.002ZM106.949 41.602H115.639V44H104.089V28.6H115.331V30.998H106.949V41.602ZM119.534 44V28.6H126.266C127.938 28.6 129.405 28.9227 130.666 29.568C131.927 30.2133 132.91 31.108 133.614 32.252C134.318 33.396 134.67 34.7453 134.67 36.3C134.67 37.84 134.318 39.1893 133.614 40.348C132.91 41.492 131.927 42.3867 130.666 43.032C129.405 43.6773 127.938 44 126.266 44H119.534ZM122.394 41.58H126.134C127.293 41.58 128.29 41.36 129.126 40.92C129.977 40.48 130.629 39.864 131.084 39.072C131.553 38.28 131.788 37.356 131.788 36.3C131.788 35.2293 131.553 34.3053 131.084 33.528C130.629 32.736 129.977 32.12 129.126 31.68C128.29 31.24 127.293 31.02 126.134 31.02H122.394V41.58Z" fill="#346EFB"/>
<path d="M145.545 44.22C144.371 44.22 143.279 44.0293 142.267 43.648C141.269 43.252 140.397 42.702 139.649 41.998C138.915 41.2793 138.343 40.436 137.933 39.468C137.522 38.5 137.317 37.444 137.317 36.3C137.317 35.156 137.522 34.1 137.933 33.132C138.343 32.164 138.923 31.328 139.671 30.624C140.419 29.9053 141.291 29.3553 142.289 28.974C143.286 28.578 144.379 28.38 145.567 28.38C146.828 28.38 147.979 28.6 149.021 29.04C150.062 29.4653 150.942 30.1033 151.661 30.954L149.813 32.692C149.255 32.0907 148.632 31.6433 147.943 31.35C147.253 31.042 146.505 30.888 145.699 30.888C144.892 30.888 144.151 31.02 143.477 31.284C142.817 31.548 142.237 31.922 141.739 32.406C141.255 32.89 140.873 33.462 140.595 34.122C140.331 34.782 140.199 35.508 140.199 36.3C140.199 37.092 140.331 37.818 140.595 38.478C140.873 39.138 141.255 39.71 141.739 40.194C142.237 40.678 142.817 41.052 143.477 41.316C144.151 41.58 144.892 41.712 145.699 41.712C146.505 41.712 147.253 41.5653 147.943 41.272C148.632 40.964 149.255 40.502 149.813 39.886L151.661 41.646C150.942 42.482 150.062 43.12 149.021 43.56C147.979 44 146.821 44.22 145.545 44.22ZM155.108 44V28.6H157.968V41.58H166.02V44H155.108ZM168.984 44V28.6H171.844V44H168.984ZM176.716 44V28.6H179.07L188.728 40.458H187.562V28.6H190.4V44H188.046L178.388 32.142H179.554V44H176.716ZM195.233 44V28.6H198.093V44H195.233ZM210.093 44.22C208.92 44.22 207.827 44.0293 206.815 43.648C205.818 43.252 204.945 42.702 204.197 41.998C203.464 41.2793 202.892 40.436 202.481 39.468C202.071 38.5 201.865 37.444 201.865 36.3C201.865 35.156 202.071 34.1 202.481 33.132C202.892 32.164 203.471 31.328 204.219 30.624C204.967 29.9053 205.84 29.3553 206.837 28.974C207.835 28.578 208.927 28.38 210.115 28.38C211.377 28.38 212.528 28.6 213.569 29.04C214.611 29.4653 215.491 30.1033 216.209 30.954L214.361 32.692C213.804 32.0907 213.181 31.6433 212.491 31.35C211.802 31.042 211.054 30.888 210.247 30.888C209.441 30.888 208.7 31.02 208.025 31.284C207.365 31.548 206.786 31.922 206.287 32.406C205.803 32.89 205.422 33.462 205.143 34.122C204.879 34.782 204.747 35.508 204.747 36.3C204.747 37.092 204.879 37.818 205.143 38.478C205.422 39.138 205.803 39.71 206.287 40.194C206.786 40.678 207.365 41.052 208.025 41.316C208.7 41.58 209.441 41.712 210.247 41.712C211.054 41.712 211.802 41.5653 212.491 41.272C213.181 40.964 213.804 40.502 214.361 39.886L216.209 41.646C215.491 42.482 214.611 43.12 213.569 43.56C212.528 44 211.369 44.22 210.093 44.22Z" fill="#34453C"/>
<path d="M45.1169 70.7746C44.1901 70.7746 43.4573 70.0418 43.4573 69.115C43.4573 68.1881 44.1901 67.4554 45.1169 67.4554C46.0438 67.4554 46.7732 68.1881 46.7732 69.115C46.7732 70.0418 46.0438 70.7746 45.1169 70.7746ZM61.114 15.9109L38.6793 1.46302C35.6545 -0.487674 31.7532 -0.487674 28.7284 1.46302L6.2904 15.9109C2.34217 18.4505 0 22.7467 0 27.431V55.8382C0 63.8417 6.48782 70.3831 14.5348 70.3831H25.0713C30.5319 70.3831 34.972 65.943 34.972 60.4757V56.1293C43.116 55.4467 51.8456 48.0287 54.0406 32.3596C54.335 30.1145 53.6525 27.8225 52.1869 26.1127C50.7247 24.4063 48.58 23.4761 46.3348 23.4761H44.3842V22.8905C44.3842 21.6224 43.3603 20.5986 42.0922 20.5986C40.8241 20.5986 39.8002 21.6224 39.8002 22.8905V26.5042C39.8002 27.7723 40.8241 28.7962 42.0922 28.7962C43.3603 28.7962 44.3842 27.7723 44.3842 26.5042V25.9186H46.3348C47.8472 25.9186 49.3094 26.6012 50.3333 27.7221C51.3605 28.8965 51.7988 30.4558 51.6014 32.0183C49.5537 47.0049 41.1653 53.7403 33.7507 53.7403C26.3394 53.7403 17.9477 47.0049 15.9 32.0183C15.7059 30.4558 16.1443 28.8965 17.1681 27.7221C18.192 26.551 19.6575 25.9186 21.1665 25.9186H23.1206V26.5042C23.1206 27.7723 24.1444 28.7962 25.4126 28.7962C26.6807 28.7962 27.7045 27.7723 27.7045 26.5042V22.8905C27.7045 21.6224 26.6807 20.5986 25.4126 20.5986C24.1444 20.5986 23.1206 21.6224 23.1206 22.8905V23.4761H21.1665C18.9247 23.4761 16.78 24.4531 15.3145 26.1127C13.8523 27.8225 13.1697 30.0676 13.4608 32.3596C15.6089 48.0287 24.3887 55.4467 32.5328 56.1293V60.4255C32.5328 64.5243 29.2169 67.8435 25.1181 67.8435H14.4847C7.85297 67.8435 2.4392 62.4264 2.4392 55.788V27.3808C2.4392 23.5263 4.33971 20.013 7.60871 17.9619L30.0434 3.51409C32.2885 2.09875 35.1158 2.09875 37.361 3.51409L59.7956 17.9619C63.0178 20.013 64.9685 23.5765 64.9685 27.3808V55.788C64.9685 62.4264 59.5547 67.8435 52.9197 67.8435H49.0652C48.5298 66.1839 46.9706 64.966 45.1638 64.966C42.922 64.966 41.0683 66.8196 41.0683 69.0648C41.0683 71.3099 42.922 73.1636 45.1638 73.1636C47.0174 73.1636 48.5298 71.9457 49.0652 70.2861H52.9197C60.9199 70.2861 67.4545 63.7949 67.4545 55.7412V27.3808C67.4044 22.6965 65.0655 18.4003 61.114 15.9109Z" fill="#346EFB"/>
</svg>


