<svg width="35" height="33" viewBox="0 0 35 33" fill="none" xmlns="http://www.w3.org/2000/svg">
<path d="M8.03236 17.3133C8.03081 17.3054 8.0294 17.2974 8.02813 17.2894L6.2488 7.22343C6.073 6.22891 5.1604 5.5 4.09106 5.5H3.64518C3.24247 5.5 2.91602 5.1922 2.91602 4.8125C2.91602 4.4328 3.24247 4.125 3.64518 4.125H4.09106C5.82913 4.125 7.31876 5.2804 7.66326 6.875H31.3535C31.838 6.875 32.1877 7.31218 32.0546 7.75137L29.138 17.3764C29.0485 17.6715 28.7624 17.875 28.4368 17.875H9.6101L9.79157 18.9016C9.96736 19.8961 10.88 20.625 11.9493 20.625H28.4368C28.8396 20.625 29.166 20.9328 29.166 21.3125C29.166 21.6922 28.8396 22 28.4368 22H11.9493C10.1671 22 8.64607 20.7851 8.35308 19.1276L8.03236 17.3133ZM7.90871 8.25L9.36705 16.5H27.8868L30.3868 8.25H7.90871ZM11.666 28.875C10.0552 28.875 8.74935 27.6438 8.74935 26.125C8.74935 24.6062 10.0552 23.375 11.666 23.375C13.2768 23.375 14.5827 24.6062 14.5827 26.125C14.5827 27.6438 13.2768 28.875 11.666 28.875ZM11.666 27.5C12.4714 27.5 13.1243 26.8844 13.1243 26.125C13.1243 25.3656 12.4714 24.75 11.666 24.75C10.8606 24.75 10.2077 25.3656 10.2077 26.125C10.2077 26.8844 10.8606 27.5 11.666 27.5ZM24.791 28.875C23.1802 28.875 21.8743 27.6438 21.8743 26.125C21.8743 24.6062 23.1802 23.375 24.791 23.375C26.4018 23.375 27.7077 24.6062 27.7077 26.125C27.7077 27.6438 26.4018 28.875 24.791 28.875ZM24.791 27.5C25.5964 27.5 26.2493 26.8844 26.2493 26.125C26.2493 25.3656 25.5964 24.75 24.791 24.75C23.9856 24.75 23.3327 25.3656 23.3327 26.125C23.3327 26.8844 23.9856 27.5 24.791 27.5Z" fill="#346EFB"/>
</svg>
