<svg width="28.000000" height="28.000000" viewBox="0 0 28 28" fill="none" xmlns="http://www.w3.org/2000/svg" xmlns:xlink="http://www.w3.org/1999/xlink">
	<desc>
			Created with Pixso.
	</desc>
	<defs/>
	<path id="Vector" d="M14 0C6.28125 0 0 6.28076 0 14C0 21.5327 5.98438 27.6782 13.4453 27.9717C13.5527 27.9795 13.6562 28 13.7637 28C13.793 28 13.8203 27.9937 13.8496 27.9927C13.9004 27.9927 13.9492 28 14 28C21.7188 28 28 21.7197 28 14C28 6.28076 21.7188 0 14 0ZM26.041 12.814L21.3184 12.814C21.2148 10.9058 20.9023 9.12744 20.4258 7.54395C21.4297 7.00488 22.2031 6.34033 22.6875 5.59277C24.5371 7.50488 25.7676 10.0195 26.041 12.814ZM14.7109 2.55908C16.0176 3.03955 17.1855 4.47803 18.0371 6.50928C17.084 6.80957 15.9609 7.01807 14.7109 7.08936L14.7109 2.55908ZM17.7754 2.50977C19.0352 2.92432 20.1973 3.54443 21.2363 4.32471C21.0254 4.82764 20.5215 5.32666 19.7773 5.76172C19.2246 4.4668 18.5488 3.36768 17.7754 2.50977ZM12.8145 2.55908L12.8145 7.08936C11.5586 7.01807 10.4355 6.80957 9.48828 6.51025C10.3398 4.479 11.5078 3.03955 12.8145 2.55908ZM7.75 5.75879C7.13281 5.39697 6.67773 4.99365 6.41992 4.58154C7.3457 3.83398 8.38672 3.22363 9.50977 2.77246C8.83398 3.58594 8.24414 4.59961 7.75 5.75879ZM12.8145 8.9917L12.8145 12.814L8.11523 12.814C8.21289 11.1914 8.47656 9.66357 8.86719 8.29785C10.0371 8.67432 11.373 8.91748 12.8145 8.9917ZM12.8145 14.7119L12.8145 19.4854C11.3828 19.5605 10.0449 19.8062 8.86914 20.186C8.40234 18.5542 8.11914 16.688 8.08008 14.7119L12.8145 14.7119ZM12.8145 21.3872L12.8145 25.916C11.5098 25.4375 10.3457 24.0034 9.49414 21.9795C10.4492 21.6748 11.5684 21.4614 12.8145 21.3872ZM8.98438 25C8.15039 24.6182 7.37109 24.1455 6.6543 23.5942C6.91992 23.2925 7.29102 23 7.75586 22.7295C8.11523 23.5713 8.52539 24.3345 8.98438 25ZM14.7109 25.916L14.7109 21.3872C15.9609 21.4604 17.082 21.6724 18.0332 21.9741C17.1816 24.0005 16.0156 25.4365 14.7109 25.916ZM19.7734 22.7227C20.3516 23.0605 20.7812 23.4355 21.0469 23.8184C20.2129 24.4189 19.3008 24.9136 18.3281 25.2886C18.8711 24.5547 19.3574 23.6938 19.7734 22.7227ZM14.7109 19.4844L14.7109 14.7119L19.4453 14.7119C19.4062 16.686 19.123 18.5503 18.6582 20.1802C17.4844 19.8022 16.1465 19.5596 14.7109 19.4844ZM14.7109 12.814L14.7109 8.9917C16.1543 8.9165 17.4863 8.66602 18.6562 8.28613C19.0469 9.65479 19.3125 11.188 19.4102 12.814L14.7109 12.814ZM5.03711 5.89844C5.52148 6.5293 6.22656 7.0874 7.09766 7.55371C6.62305 9.13379 6.31055 10.9106 6.20703 12.814L1.95898 12.814C2.2168 10.1636 3.34375 7.77002 5.03711 5.89844ZM1.93359 14.7119L6.18164 14.7119C6.22266 16.9746 6.54492 19.085 7.09766 20.9263C6.34375 21.3286 5.71484 21.8013 5.24219 22.3301C3.33008 20.3198 2.10742 17.6572 1.93359 14.7119ZM22.5039 22.5977C22.0156 21.9561 21.3086 21.3872 20.4297 20.9175C20.9824 19.0791 21.3027 16.9712 21.3438 14.7119L26.0664 14.7119C25.8848 17.7871 24.5645 20.5596 22.5039 22.5977Z" fill="#346EFB" fill-opacity="1.000000" fill-rule="nonzero"/>
</svg>
